<svg width="20" height="20" viewBox="0 0 20 20" fill="none" xmlns="http://www.w3.org/2000/svg">
<g id="event_black_24dp (1) 1" clip-path="url(#clip0_5242_2025)">
<path id="Vector" d="M15.8333 3.33335H15V1.66669H13.3333V3.33335H6.66667V1.66669H5V3.33335H4.16667C3.24167 3.33335 2.50833 4.08335 2.50833 5.00002L2.5 16.6667C2.5 17.5834 3.24167 18.3334 4.16667 18.3334H15.8333C16.75 18.3334 17.5 17.5834 17.5 16.6667V5.00002C17.5 4.08335 16.75 3.33335 15.8333 3.33335ZM15.8333 16.6667H4.16667V8.33335H15.8333V16.6667ZM15.8333 6.66669H4.16667V5.00002H15.8333V6.66669ZM10 10.8334H14.1667V15H10V10.8334Z" fill="#AAAAAA"/>
</g>
<defs>
<clipPath id="clip0_5242_2025">
<rect width="20" height="20" fill="white"/>
</clipPath>
</defs>
</svg>
