<svg width="64" height="64" viewBox="0 0 64 64" fill="none" xmlns="http://www.w3.org/2000/svg">
<circle cx="32" cy="32" r="32" fill="#00596C"/>
<path d="M26.1429 18.8889H22.5714C21.6242 18.8889 20.7158 19.2986 20.046 20.0279C19.3763 20.7572 19 21.7464 19 22.7778V46.1111C19 47.1425 19.3763 48.1317 20.046 48.861C20.7158 49.5903 21.6242 50 22.5714 50H40.4286C41.3758 50 42.2842 49.5903 42.954 48.861C43.6237 48.1317 44 47.1425 44 46.1111V22.7778C44 21.7464 43.6237 20.7572 42.954 20.0279C42.2842 19.2986 41.3758 18.8889 40.4286 18.8889H36.8571M26.1429 18.8889C26.1429 19.9203 26.5191 20.9094 27.1889 21.6387C27.8587 22.3681 28.7671 22.7778 29.7143 22.7778H33.2857C34.2329 22.7778 35.1413 22.3681 35.8111 21.6387C36.4809 20.9094 36.8571 19.9203 36.8571 18.8889M26.1429 18.8889C26.1429 17.8575 26.5191 16.8683 27.1889 16.139C27.8587 15.4097 28.7671 15 29.7143 15H33.2857C34.2329 15 35.1413 15.4097 35.8111 16.139C36.4809 16.8683 36.8571 17.8575 36.8571 18.8889M31.5 32.5H36.8571M31.5 40.2778H36.8571M26.1429 32.5H26.1607M26.1429 40.2778H26.1607" stroke="white" stroke-width="1.5" stroke-linecap="round" stroke-linejoin="round"/>
</svg>
