<svg width="27" height="27" viewBox="0 0 27 27" fill="none" xmlns="http://www.w3.org/2000/svg">
<path d="M17.875 26.625H14.9583V23.7083H17.875V26.625ZM14.9583 16.4167H12.0417V23.7083H14.9583V16.4167ZM26.625 13.5H23.7083V19.3333H26.625V13.5ZM23.7083 10.5833H20.7917V13.5H23.7083V10.5833ZM6.20833 13.5H3.29167V16.4167H6.20833V13.5ZM3.29167 10.5833H0.375V13.5H3.29167V10.5833ZM13.5 3.29167H16.4167V0.375H13.5V3.29167ZM2.5625 2.5625V6.9375H6.9375V2.5625H2.5625ZM9.125 9.125H0.375V0.375H9.125V9.125ZM2.5625 20.0625V24.4375H6.9375V20.0625H2.5625ZM9.125 26.625H0.375V17.875H9.125V26.625ZM20.0625 2.5625V6.9375H24.4375V2.5625H20.0625ZM26.625 9.125H17.875V0.375H26.625V9.125ZM23.7083 23.7083V19.3333H17.875V22.25H20.7917V26.625H26.625V23.7083H23.7083ZM20.7917 13.5H14.9583V16.4167H20.7917V13.5ZM14.9583 10.5833H6.20833V13.5H9.125V16.4167H12.0417V13.5H14.9583V10.5833ZM16.4167 9.125V6.20833H13.5V3.29167H10.5833V9.125H16.4167ZM5.84375 3.65625H3.65625V5.84375H5.84375V3.65625ZM5.84375 21.1562H3.65625V23.3438H5.84375V21.1562ZM23.3438 3.65625H21.1562V5.84375H23.3438V3.65625Z" fill="#336DF2"/>
</svg>
